<svg xmlns="http://www.w3.org/2000/svg" version="1.1" viewBox="-5.0 -10.0 110.0 135.0">
 <path d="m84.074 74.141h-68.148c-2.5039-0.003906-4.5312-2.0312-4.5352-4.5391v-44.191c0.003906-2.5039 2.0312-4.5312 4.5352-4.5352l68.148-0.003906c2.5039 0.007812 4.5312 2.0352 4.5352 4.5391v44.191c-0.003906 2.5078-2.0312 4.5352-4.5352 4.5391zm-68.148-50.336c-0.88672 0-1.6016 0.71875-1.6055 1.6055v44.191c0 0.89063 0.71875 1.6094 1.6055 1.6094h68.148c0.88672 0 1.6055-0.71875 1.6055-1.6094v-44.191c-0.003907-0.88672-0.71875-1.6055-1.6055-1.6055z"/>
 <path d="m58.164 87.055c-0.68359 0-1.2773-0.46875-1.4258-1.1328l-2.9688-12.922c-0.16797-0.78125 0.32422-1.5547 1.1055-1.7344s1.5625 0.30078 1.75 1.082l2.9688 12.914c0.085938 0.38281 0.019531 0.78125-0.1875 1.1094s-0.53516 0.5625-0.91406 0.64844c-0.10938 0.027344-0.21875 0.039063-0.32813 0.035157zm-16.324 0c-0.11328 0.003906-0.22266-0.011719-0.32812-0.035157-0.38281-0.085937-0.71094-0.32031-0.91797-0.65234-0.20703-0.32813-0.27344-0.72656-0.18359-1.1055l2.9688-12.914-0.003906-0.003906c0.1875-0.77734 0.96875-1.2617 1.75-1.082 0.78125 0.17969 1.2734 0.95312 1.1055 1.7383l-2.9688 12.918h0.003906c-0.15234 0.66406-0.74609 1.1367-1.4297 1.1367z"/>
 <path d="m87.145 66.961h-74.289c-0.80859 0-1.4648-0.65625-1.4648-1.4688 0-0.80859 0.65625-1.4609 1.4648-1.4609h74.289c0.80859 0 1.4648 0.65234 1.4648 1.4609 0 0.8125-0.65625 1.4688-1.4648 1.4688z"/>
 <path d="m68.176 95.996h-36.352c-0.57031 0-1.0938-0.33203-1.332-0.85156-0.23828-0.51953-0.15234-1.1328 0.21875-1.5664 6.375-7.4453 12.867-11.219 19.289-11.219s12.914 3.7734 19.289 11.219c0.37109 0.43359 0.45703 1.0469 0.21875 1.5664-0.23828 0.51953-0.76172 0.85156-1.332 0.85156zm-33.031-2.9297h29.715c-5.043-5.1641-10.031-7.7773-14.855-7.7773-4.8281 0-9.8164 2.6172-14.863 7.7773z"/>
 <path d="m50.008 52.031c-4.1875 0.003906-7.6914-3.1797-8.0859-7.3477-0.39844-4.168 2.4453-7.957 6.5586-8.7422s8.1484 1.6914 9.3125 5.7148c1.168 4.0195-0.91797 8.2695-4.8164 9.8047-0.94531 0.375-1.9492 0.56641-2.9688 0.56641zm0-13.297v-0.003906c-2.0664 0-3.9336 1.2266-4.7578 3.125-0.69141 1.5898-0.54297 3.418 0.39453 4.875s2.543 2.3477 4.2734 2.3789c1.7344 0.027344 3.3672-0.8125 4.3516-2.2383 0.98438-1.4219 1.1914-3.2461 0.55078-4.8555-0.78125-1.9805-2.6914-3.2812-4.8203-3.2852z"/>
 <path d="m50 61.266c-1.1992 0-2.3945-0.125-3.5703-0.375-0.40625-0.082031-0.75781-0.33594-0.96484-0.69531-0.20703-0.35937-0.25391-0.78906-0.12891-1.1836 0.26953-0.85156-0.14844-1.7734-0.96875-2.1289-0.82031-0.35547-1.7773-0.03125-2.2148 0.75-0.20312 0.35938-0.54688 0.61719-0.94922 0.71094-0.40234 0.089844-0.82422 0.007812-1.1641-0.22656-1.8086-1.2656-3.3594-2.8672-4.5625-4.7188-0.23047-0.34766-0.29687-0.77344-0.19141-1.1758 0.10547-0.39844 0.37891-0.73828 0.74609-0.92578 0.78906-0.41406 1.1406-1.3516 0.81641-2.1836-0.32812-0.82812-1.2227-1.2773-2.082-1.043-0.39844 0.10938-0.82812 0.050782-1.1797-0.17187-0.34766-0.21875-0.58984-0.57813-0.66406-0.98438-0.38672-2.1758-0.34766-4.4023 0.10938-6.5625 0.085938-0.40625 0.33984-0.75781 0.69922-0.96875 0.35938-0.20703 0.78906-0.25391 1.1836-0.125 0.85156 0.26953 1.7734-0.14844 2.1289-0.96875 0.35547-0.82031 0.03125-1.7773-0.74609-2.2148-0.36328-0.20312-0.625-0.55078-0.71875-0.95312-0.089844-0.40234-0.007813-0.82812 0.23047-1.168 1.2656-1.8086 2.8672-3.3594 4.7188-4.5625 0.34766-0.23047 0.77344-0.29688 1.1758-0.19141 0.39844 0.10547 0.73828 0.37891 0.92578 0.74609 0.41016 0.79688 1.3555 1.1523 2.1914 0.82422 0.83203-0.33203 1.2812-1.2344 1.0352-2.0977-0.10938-0.39844-0.050781-0.82812 0.17188-1.1797 0.21875-0.34766 0.57812-0.58984 0.98438-0.66406 2.1758-0.38672 4.4023-0.34766 6.5625 0.11328v-0.003906c0.40625 0.085938 0.75781 0.33984 0.96484 0.69922 0.21094 0.35938 0.25781 0.78906 0.12891 1.1836-0.26953 0.85156 0.14844 1.7734 0.96875 2.1289 0.82031 0.35547 1.7773 0.03125 2.2148-0.74609 0.20313-0.36328 0.54688-0.61719 0.94531-0.71094 0.40234-0.09375 0.82422-0.011719 1.1641 0.22266 1.8125 1.2656 3.3633 2.8672 4.5664 4.7188 0.22656 0.34766 0.29688 0.77344 0.1875 1.1758-0.10547 0.39844-0.375 0.73828-0.74609 0.92578-0.79297 0.41016-1.1484 1.3555-0.82031 2.1914 0.32812 0.83203 1.2344 1.2812 2.0938 1.0352 0.40234-0.10938 0.82812-0.050781 1.1797 0.17188 0.35156 0.21875 0.59375 0.57812 0.66406 0.98438 0.38672 2.1758 0.34766 4.4023-0.10938 6.5625-0.085937 0.40625-0.33984 0.75781-0.69531 0.96875-0.35938 0.20703-0.78906 0.25391-1.1875 0.125-0.84766-0.26172-1.7617 0.15625-2.1172 0.97266-0.35547 0.81641-0.035156 1.7695 0.73828 2.2109 0.36328 0.20313 0.62109 0.54688 0.71484 0.95313 0.09375 0.40234 0.011718 0.82812-0.22656 1.168-1.2656 1.8086-2.8711 3.3594-4.7188 4.5664-0.34766 0.22266-0.77734 0.29297-1.1758 0.1875-0.40234-0.10937-0.73828-0.37891-0.92578-0.74609-0.41406-0.79688-1.3594-1.1523-2.1914-0.82422-0.83203 0.33203-1.2812 1.2344-1.0391 2.0977 0.11328 0.39844 0.050781 0.82812-0.16797 1.1797-0.21875 0.34766-0.57812 0.58984-0.98438 0.66406h-0.003906c-0.98828 0.17578-1.9922 0.26172-2.9961 0.26172zm-1.6562-3.0234c0.9375 0.10937 1.8828 0.125 2.8203 0.046874h0.003907c0.15625-1.7656 1.2969-3.2891 2.9453-3.9414 1.6484-0.65234 3.5234-0.31641 4.8477 0.86328 0.73828-0.58594 1.4141-1.2422 2.0234-1.9609-1.1328-1.3594-1.4062-3.2461-0.69922-4.8711 0.70312-1.625 2.2656-2.7109 4.0352-2.8125 0.10938-0.9375 0.125-1.8828 0.046876-2.8203-1.7617-0.16016-3.2812-1.3008-3.9297-2.9453-0.64844-1.6484-0.31641-3.5195 0.85938-4.8398-0.58203-0.73828-1.2383-1.418-1.9531-2.0273-1.3594 1.1367-3.2461 1.4062-4.8711 0.70312-1.625-0.70703-2.7109-2.2695-2.8125-4.0391v0.003906c-0.9375-0.10937-1.8828-0.12891-2.8203-0.050781-0.16016 1.7695-1.3008 3.293-2.9531 3.9414-1.6523 0.65234-3.5312 0.3125-4.8477-0.875-0.74219 0.58594-1.4219 1.2422-2.0312 1.9609 1.1367 1.3633 1.4102 3.2461 0.70313 4.8711-0.70313 1.625-2.2656 2.7148-4.0352 2.8164-0.10938 0.93359-0.125 1.8789-0.046875 2.8203 1.7617 0.15625 3.2891 1.2969 3.9414 2.9453 0.64844 1.6484 0.3125 3.5234-0.86719 4.8438 0.58594 0.74219 1.2422 1.4219 1.9648 2.0312 1.3594-1.1367 3.2422-1.4102 4.8672-0.70312 1.625 0.70312 2.7148 2.2656 2.8164 4.0352z"/>
 <path d="m40.547 32.617c-0.8125 0-1.4688-0.65625-1.4688-1.4648v-16.113h-6.9609c-0.80859 0-1.4648-0.65625-1.4648-1.4648 0-0.80859 0.65625-1.4648 1.4648-1.4648h8.4297c0.38672 0 0.75781 0.15625 1.0352 0.42969 0.27344 0.27344 0.42578 0.64844 0.42578 1.0352v17.578c0 0.38672-0.15234 0.76172-0.42578 1.0352-0.27734 0.27344-0.64844 0.42969-1.0352 0.42969z"/>
 <path d="m59.934 32.984c-0.8125 0-1.4648-0.65234-1.4648-1.4609v-17.945c0-0.80859 0.65234-1.4609 1.4648-1.4609h8.4258c0.80859 0 1.4648 0.65234 1.4648 1.4609 0 0.8125-0.65625 1.4688-1.4648 1.4688h-6.9609v16.477-0.003907c0 0.39062-0.15625 0.76172-0.42969 1.0391-0.27734 0.27344-0.64844 0.42578-1.0352 0.42578z"/>
 <path d="m50.238 29.492c-0.80859 0-1.4648-0.65625-1.4648-1.4648v-14.789c0-0.80859 0.65625-1.4648 1.4648-1.4648 0.80859 0 1.4648 0.65625 1.4648 1.4648v14.797-0.003906c-0.003906 0.80859-0.65625 1.4609-1.4648 1.4609z"/>
 <path d="m28.234 18.93c-2.1641 0-4.1133-1.3008-4.9453-3.3008-0.82812-2-0.37109-4.3008 1.1602-5.832 1.5312-1.5273 3.832-1.9883 5.8281-1.1602 2 0.82812 3.3047 2.7812 3.3047 4.9414-0.003906 2.9531-2.3945 5.3477-5.3477 5.3516zm0-7.7695v0.003906c-0.98047-0.003906-1.8633 0.58594-2.2383 1.4922-0.375 0.90234-0.16797 1.9453 0.52344 2.6367 0.69531 0.69141 1.7344 0.89844 2.6406 0.52344 0.90234-0.375 1.4922-1.2578 1.4922-2.2383 0-1.332-1.082-2.4141-2.418-2.4141z"/>
 <path d="m72.242 18.93c-2.1602 0-4.1133-1.3047-4.9414-3.3008-0.82812-2-0.37109-4.3008 1.1602-5.832s3.832-1.9883 5.832-1.1602c1.9961 0.82812 3.3008 2.7812 3.3008 4.9414-0.003906 2.957-2.3945 5.3477-5.3516 5.3516zm0-7.7695c-0.97656 0-1.8594 0.58984-2.2344 1.4922-0.375 0.90625-0.16797 1.9453 0.52344 2.6406 0.69531 0.69141 1.7344 0.89844 2.6406 0.52344 0.90234-0.375 1.4922-1.2578 1.4922-2.2383-0.003906-1.332-1.0859-2.4141-2.4219-2.418z"/>
 <path d="m50.238 14.703c-2.1641 0-4.1133-1.3047-4.9414-3.3008-0.82812-2-0.37109-4.3008 1.1602-5.832 1.5273-1.5312 3.8281-1.9883 5.8281-1.1602s3.3047 2.7812 3.3047 4.9414h-0.003906c0 2.957-2.3945 5.3477-5.3477 5.3516zm0-7.7695c-0.98047 0-1.8594 0.58984-2.2344 1.4922-0.375 0.90625-0.16797 1.9453 0.52344 2.6406 0.69141 0.69141 1.7344 0.89844 2.6367 0.52344 0.90625-0.375 1.4961-1.2578 1.4961-2.2383h-0.003906c0-1.332-1.082-2.4141-2.418-2.418z"/>
<text x="0.0" y="117.5" font-size="5.0" font-weight="bold" font-family="Arbeit Regular, Helvetica, Arial-Unicode, Arial, Sans-serif" fill="#000000">Created by Designing Hub</text><text x="0.0" y="122.5" font-size="5.0" font-weight="bold" font-family="Arbeit Regular, Helvetica, Arial-Unicode, Arial, Sans-serif" fill="#000000">from Noun Project</text></svg>