<svg xmlns="http://www.w3.org/2000/svg" version="1.1" viewBox="-5.0 -10.0 110.0 135.0">
 <path d="m86.844 6.5781h-73.688c-3.6328 0-6.5781 2.9492-6.5781 6.5781v73.684c0 3.6328 2.9492 6.5781 6.5781 6.5781h73.684c3.6328 0 6.5781-2.9492 6.5781-6.5781l0.003906-73.684c0-3.6328-2.9492-6.5781-6.5781-6.5781zm0 57.121-22.75 22.762c-0.18359 0.18359-0.42188 0.30078-0.67188 0.35547l-6.5781 1.3164c-0.09375 0.011719-0.17188 0.027344-0.26172 0.027344-0.34375 0-0.68359-0.13281-0.93359-0.38281-0.30078-0.31641-0.44922-0.76172-0.35547-1.1992l1.3164-6.5781c0.050781-0.25 0.17188-0.48828 0.35547-0.67188l22.762-22.75c1.6992-1.6992 4.6445-1.6992 6.3438 0l0.77734 0.77734c0.84375 0.84375 1.3164 1.9727 1.3164 3.1719 0 1.1992-0.47266 2.3281-1.3164 3.1719zm-77.633-3.6211c0-1.0391 0.42187-2.0664 1.1562-2.7891l0.17187-0.17187c0.80078-0.34375 1.6836-0.53906 2.6172-0.53906h39.473c2.1719 0 3.9492-1.7773 3.9492-3.9492v-39.473c0-0.93359 0.19922-1.8164 0.53906-2.6172l0.17187-0.17187c0.73828-0.75 1.7383-1.1562 2.7891-1.1562h3.0781c-2.1719 0-3.9492 1.7773-3.9492 3.9492v5.2617h17.105c2.1719 0 3.9492 1.7773 3.9492 3.9492v23.684c0 2.1719-1.7773 3.9492-3.9492 3.9492h-17.105v2.6328c0 3.6328-2.9492 6.5781-6.5781 6.5781l-39.473-0.003906c-2.1719 0-3.9492 1.7773-3.9492 3.9492v-3.0781zm39.473 16.238c-0.72266 0-1.3164-0.59375-1.3164-1.3164s0.59375-1.3164 1.3164-1.3164h2.6328c0.72266 0 1.3164 0.59375 1.3164 1.3164s-0.59375 1.3164-1.3164 1.3164zm2.6328 2.6328c0 0.72266-0.59375 1.3164-1.3164 1.3164h-1.3164c-0.72266 0-1.3164-0.59375-1.3164-1.3164 0-0.72266 0.59375-1.3164 1.3164-1.3164h1.3164c0.72266 0 1.3164 0.59375 1.3164 1.3164zm-2.6328-6.582c-0.72266 0-1.3164-0.59375-1.3164-1.3164 0-0.72266 0.59375-1.3164 1.3164-1.3164h3.9492c0.72266 0 1.3164 0.59375 1.3164 1.3164 0 0.72266-0.59375 1.3164-1.3164 1.3164zm0-3.9453c-0.72266 0-1.3164-0.59375-1.3164-1.3164 0-0.72266 0.59375-1.3164 1.3164-1.3164h5.2617c0.72266 0 1.3164 0.59375 1.3164 1.3164 0 0.72266-0.59375 1.3164-1.3164 1.3164zm0-3.9492c-0.72266 0-1.3164-0.59375-1.3164-1.3164s0.59375-1.3164 1.3164-1.3164h11.844c0.72266 0 1.3164 0.59375 1.3164 1.3164s-0.59375 1.3164-1.3164 1.3164zm-5.2617 1.3164v15.789c0 2.1719-1.7773 3.9492-3.9492 3.9492h-18.422c-2.1719 0-3.9492-1.7773-3.9492-3.9492v-15.789c0-2.1719 1.7773-3.9492 3.9492-3.9492h18.422c2.1719 0 3.9492 1.7773 3.9492 3.9492zm-34.211-52.633c0-2.1719 1.7773-3.9492 3.9492-3.9492h41.551l-45.5 45.504z"/>
 <path d="m20.668 14.859c-0.51562-0.51562-1.3477-0.51562-1.8594 0l-3.9492 3.9492c-0.51562 0.51562-0.51562 1.3477 0 1.8594l3.9492 3.9492c0.25781 0.25781 0.59375 0.38672 0.92969 0.38672 0.33594 0 0.67188-0.12891 0.92969-0.38672 0.51562-0.51563 0.51562-1.3477 0-1.8594l-3.0156-3.0156 3.0156-3.0156c0.51562-0.51562 0.51562-1.3477 0-1.8594z"/>
 <path d="m35.141 18.805-3.9492-3.9492c-0.51562-0.51562-1.3477-0.51562-1.8594 0-0.51562 0.51562-0.51562 1.3477 0 1.8594l3.0156 3.0156-3.0156 3.0156c-0.51562 0.51562-0.51562 1.3477 0 1.8594 0.25781 0.25781 0.59375 0.38672 0.92969 0.38672 0.33594 0 0.67188-0.12891 0.92969-0.38672l3.9492-3.9492c0.51562-0.51562 0.51562-1.3477 0-1.8594z"/>
 <path d="m26.73 14.543c-0.69531-0.23047-1.4336 0.14453-1.6641 0.83203l-2.6328 7.8945c-0.23047 0.6875 0.14453 1.4336 0.83203 1.6641 0.14062 0.046875 0.27734 0.066406 0.41797 0.066406 0.55078 0 1.0625-0.34766 1.2461-0.89844l2.6328-7.8945c0.23047-0.6875-0.14453-1.4336-0.83203-1.6641z"/>
 <path d="m77.633 46.051v-23.684c0-0.72266-0.59375-1.3164-1.3164-1.3164h-17.105v26.316h17.105c0.72266 0 1.3164-0.59375 1.3164-1.3164z"/>
 <path d="m21.051 64.473h18.422c0.72656 0 1.3164 0.72656 1.3164 1.3164v15.789c0 0.72656-0.58984 1.3164-1.3164 1.3164h-18.422c-0.72656 0-1.3164-0.72656-1.3164-1.3164v-15.789c0-0.72656 0.58984-1.3164 1.3164-1.3164z"/>
 <path d="m84.211 58.434c-0.71094-0.69922-1.9219-0.69922-2.6328 0l-22.473 22.473-0.85547 4.2617 4.2617-0.85547 22.473-22.473c0.34375-0.35547 0.53906-0.81641 0.53906-1.3164s-0.19922-0.96094-0.53906-1.3164l-0.77734-0.77734z"/>
<text x="0.0" y="117.5" font-size="5.0" font-weight="bold" font-family="Arbeit Regular, Helvetica, Arial-Unicode, Arial, Sans-serif" fill="#000000">Created by I Putu Dicky Adi Pranatha</text><text x="0.0" y="122.5" font-size="5.0" font-weight="bold" font-family="Arbeit Regular, Helvetica, Arial-Unicode, Arial, Sans-serif" fill="#000000">from Noun Project</text></svg>