<?xml version="1.0" standalone="no"?>
<!DOCTYPE svg PUBLIC "-//W3C//DTD SVG 20010904//EN"
 "http://www.w3.org/TR/2001/REC-SVG-20010904/DTD/svg10.dtd">
<svg version="1.0" xmlns="http://www.w3.org/2000/svg"
 width="819.000000pt" height="819.000000pt" viewBox="0 0 819.000000 819.000000"
 preserveAspectRatio="xMidYMid meet">

<g transform="translate(0.000000,819.000000) scale(0.100000,-0.100000)"
fill="#000000" stroke="none">
<path d="M3573 7640 c-54 -13 -96 -44 -120 -89 l-23 -44 0 -691 c0 -657 1
-693 19 -733 12 -25 35 -52 59 -68 l39 -26 415 3 415 3 36 28 c76 58 72 9 72
792 0 648 -1 702 -17 732 -23 41 -72 78 -123 92 -46 12 -720 14 -772 1z m306
-186 c56 -47 50 -147 -13 -185 -25 -15 -50 -19 -134 -19 l-104 0 -34 34 c-30
30 -34 40 -34 86 0 44 4 56 29 81 29 29 31 29 144 29 109 0 117 -1 146 -26z
m162 -528 c173 -62 218 -296 77 -407 -167 -133 -398 -26 -398 184 0 109 64
196 170 228 39 12 111 9 151 -5z"/>
<path d="M3925 6840 c-45 -10 -71 -30 -94 -71 -24 -43 -26 -77 -7 -122 53
-127 236 -113 277 21 10 36 10 47 -6 81 -10 22 -27 49 -39 60 -26 24 -90 40
-131 31z"/>
<path d="M2853 7545 c-65 -28 -93 -123 -56 -186 10 -16 36 -39 60 -50 56 -27
109 -14 153 39 28 33 31 42 27 89 -4 59 -24 88 -74 109 -40 17 -69 17 -110 -1z"/>
<path d="M4986 7550 c-95 -29 -121 -156 -46 -222 39 -36 112 -41 158 -12 85
55 78 184 -12 225 -45 20 -57 21 -100 9z"/>
<path d="M2453 7140 c-42 -17 -56 -55 -61 -166 l-5 -104 -53 0 c-41 0 -54 4
-54 15 0 25 -60 84 -96 94 -65 18 -147 -23 -159 -79 l-7 -30 -92 0 c-80 0 -95
-3 -115 -21 -20 -19 -22 -29 -20 -125 l1 -104 609 0 609 0 0 108 c0 149 10
142 -213 142 l-177 0 0 106 0 106 -34 34 c-27 27 -42 34 -72 33 -22 0 -49 -4
-61 -9z"/>
<path d="M5041 7070 c-39 -9 -77 -35 -105 -74 -20 -26 -21 -42 -24 -386 -3
-339 -2 -362 17 -397 23 -46 56 -78 94 -92 19 -7 213 -11 580 -11 518 0 555 2
593 19 51 23 90 72 103 131 14 62 14 633 0 685 -14 51 -73 110 -124 124 -47
13 -1079 14 -1134 1z m990 -194 c2 -2 3 -131 1 -285 l-3 -281 -424 0 -425 0 0
285 0 285 423 0 c233 0 426 -2 428 -4z m-958 -218 c52 -27 62 -83 22 -123 -39
-40 -96 -32 -120 16 -21 40 -19 57 14 90 32 31 50 35 84 17z"/>
<path d="M5436 6638 c-33 -47 -21 -77 73 -180 19 -21 40 -47 48 -58 8 -11 23
-25 35 -31 18 -10 29 -3 90 57 128 125 150 170 105 212 -37 35 -65 28 -118
-28 -26 -27 -50 -50 -54 -50 -4 0 -28 23 -54 50 -54 58 -98 67 -125 28z"/>
<path d="M1335 6670 c-71 -29 -90 -126 -36 -181 24 -23 38 -29 74 -29 55 0 92
27 108 79 26 86 -63 166 -146 131z"/>
<path d="M6613 6666 c-34 -16 -63 -61 -63 -99 0 -32 39 -89 72 -104 35 -18 81
-6 117 29 37 36 47 77 28 115 -33 63 -94 86 -154 59z"/>
<path d="M1794 6516 c-3 -7 -4 -110 -2 -229 3 -201 4 -218 24 -244 40 -54 30
-53 582 -53 563 0 560 0 595 59 15 25 17 60 17 255 l0 226 -605 0 c-503 0
-607 -2 -611 -14z"/>
<path d="M1000 6228 l0 -78 80 0 81 0 -3 78 -3 77 -77 1 -78 1 0 -79z"/>
<path d="M1330 6230 l0 -80 75 0 75 0 0 80 0 80 -75 0 -75 0 0 -80z"/>
<path d="M6575 6150 c-303 -67 -457 -339 -371 -656 13 -49 36 -127 51 -174 14
-47 51 -166 80 -265 30 -99 63 -191 73 -205 27 -36 75 -47 116 -28 18 9 115
105 217 215 101 109 203 218 226 243 106 114 150 195 173 318 32 179 -57 384
-211 483 -95 60 -253 92 -354 69z m195 -305 c94 -65 122 -183 67 -277 -75
-129 -252 -139 -344 -20 -107 140 2 341 179 330 42 -3 67 -12 98 -33z"/>
<path d="M876 5924 c-12 -12 -16 -37 -16 -104 0 -67 4 -92 16 -104 13 -14 57
-16 330 -16 l315 0 -3 -112 -3 -113 -220 4 c-261 4 -343 -3 -388 -33 -47 -32
-46 -57 4 -92 l42 -29 284 -3 283 -3 0 -134 0 -135 -65 0 -65 0 0 -114 0 -114
86 -7 c102 -9 261 -2 275 12 8 8 14 750 9 1060 0 7 -10 21 -22 33 -21 19 -33
20 -434 20 -362 0 -415 -2 -428 -16z"/>
<path d="M3020 5624 c-159 -10 -290 -45 -417 -114 -226 -122 -377 -312 -445
-562 l-23 -83 0 -1065 c0 -1202 -5 -1117 80 -1296 123 -257 346 -433 624 -495
82 -18 144 -19 1192 -19 1263 0 1173 -6 1379 91 252 119 416 311 493 577 l22
77 0 1060 0 1060 -22 81 c-48 173 -116 290 -247 419 -133 131 -270 207 -457
251 -68 16 -155 18 -1099 19 -564 1 -1050 0 -1080 -1z m1821 -434 c9 -30 85
-262 167 -515 83 -253 207 -638 277 -855 69 -217 171 -533 226 -701 54 -168
99 -309 99 -313 0 -3 -89 -5 -197 -4 l-197 3 -102 310 -102 310 -302 3 -301 2
6 23 c12 39 87 241 100 267 l13 25 191 -4 c105 -2 191 -1 191 2 0 2 -34 112
-76 243 -41 132 -91 289 -110 349 -46 147 -76 227 -82 220 -6 -6 -6 -6 -130
-350 -49 -137 -155 -430 -235 -650 -120 -329 -296 -822 -399 -1117 l-20 -58
-259 0 c-201 0 -259 3 -259 13 1 6 25 75 54 152 l53 140 82 42 c138 70 243
163 330 292 115 169 160 350 161 644 0 146 0 147 23 147 19 0 27 14 55 93 19
50 79 214 134 362 55 149 131 356 169 460 39 105 98 263 131 352 l60 162 62 4
c33 2 85 3 115 3 l54 -1 18 -55z m-983 -862 l-3 -913 -28 -90 c-83 -266 -261
-442 -522 -516 -112 -32 -287 -33 -398 -1 -326 93 -547 385 -547 721 l0 96
195 2 c145 1 195 -1 195 -10 1 -7 5 -56 9 -110 15 -160 82 -267 209 -329 59
-29 76 -33 147 -33 67 0 90 5 142 29 75 34 134 95 171 174 l27 57 5 915 c3
503 7 916 8 918 1 1 90 2 197 2 l196 0 -3 -912z"/>
<path d="M598 5512 c-59 -26 -106 -51 -105 -57 4 -11 164 -91 202 -101 l25 -6
0 106 c0 58 -3 106 -7 105 -5 0 -56 -21 -115 -47z"/>
<path d="M7423 5130 c-61 -37 -86 -109 -60 -172 57 -136 256 -107 273 39 14
109 -118 192 -213 133z"/>
<path d="M420 5022 c-59 -59 -43 -158 30 -194 32 -16 74 -18 437 -18 l402 0 3
116 c2 64 1 118 -1 120 -2 2 -193 4 -423 4 l-420 0 -28 -28z"/>
<path d="M6840 4599 c-304 -36 -570 -257 -666 -554 -52 -160 -43 -390 21 -547
82 -201 254 -369 455 -444 305 -115 628 -34 861 213 202 216 267 518 170 800
-87 254 -320 464 -571 516 -103 22 -182 26 -270 16z m20 -449 l0 -280 -120 0
-120 0 0 34 c0 89 50 251 113 366 27 49 112 160 123 160 2 0 4 -126 4 -280z
m257 151 c63 -95 127 -276 135 -386 l3 -40 -123 -3 -122 -3 0 283 1 283 35
-40 c19 -22 51 -64 71 -94z m-507 43 c0 -3 -8 -18 -19 -32 -55 -79 -105 -223
-116 -337 -11 -113 -4 -105 -101 -105 l-85 0 7 38 c27 152 130 317 254 408 44
33 60 40 60 28z m758 -78 c109 -104 171 -217 197 -360 l7 -36 -80 0 -81 0 -6
48 c-19 153 -55 280 -106 370 -16 28 -25 52 -19 52 6 0 45 -33 88 -74z m-898
-576 c0 -105 53 -289 111 -383 16 -27 28 -51 26 -54 -3 -2 -38 23 -79 56 -91
72 -159 169 -199 285 -26 74 -36 126 -25 137 2 2 41 3 85 1 l81 -4 0 -38z
m701 40 l79 0 0 -34 c0 -45 -24 -156 -49 -230 -30 -86 -84 -178 -141 -238
l-49 -53 -1 277 c0 298 -1 291 54 283 16 -3 64 -5 107 -5z m395 -1 c7 -12 -34
-156 -59 -206 -40 -78 -111 -165 -176 -217 -34 -26 -61 -45 -61 -41 0 3 10 22
23 43 48 78 91 213 103 325 12 108 13 109 95 105 39 -1 72 -5 75 -9z m-706
-276 l-1 -278 -54 58 c-53 58 -109 158 -140 251 -21 65 -45 179 -45 217 l0 29
120 0 120 0 0 -277z"/>
<path d="M993 4549 c-125 -12 -272 -66 -379 -140 -65 -45 -164 -148 -212 -222
-83 -128 -122 -267 -122 -429 1 -215 78 -398 236 -561 266 -273 694 -313 1019
-96 228 153 368 431 352 699 -28 461 -427 796 -894 749z m232 -154 c112 -23
227 -87 318 -176 42 -42 77 -81 77 -88 0 -6 -16 -11 -38 -11 -32 0 -45 7 -82
46 -56 57 -160 120 -242 146 -98 30 -259 28 -364 -6 -88 -28 -203 -102 -242
-155 -19 -26 -29 -31 -62 -31 -22 0 -40 4 -40 9 0 16 67 93 120 136 151 124
356 172 555 130z m-45 -216 c94 -21 181 -79 246 -161 l39 -48 116 0 c113 0
116 0 127 -25 36 -78 39 -247 7 -352 l-16 -53 -118 0 -118 0 -42 -50 c-135
-160 -356 -205 -541 -110 -66 34 -156 124 -189 191 -42 84 -57 180 -42 261 42
212 213 356 426 357 33 0 80 -4 105 -10z m-540 -804 c108 -115 293 -195 447
-195 134 1 287 61 401 159 53 46 78 61 101 61 17 0 31 -4 31 -8 0 -20 -115
-133 -177 -176 -100 -68 -194 -98 -324 -104 -215 -9 -390 62 -519 213 -57 68
-59 75 -18 75 24 0 42 -8 58 -25z"/>
<path d="M963 4082 c-121 -43 -201 -138 -224 -262 -11 -61 -10 -78 5 -131 20
-74 50 -122 110 -177 71 -65 125 -86 226 -87 72 0 94 4 143 27 125 59 197 172
197 312 0 133 -80 251 -207 308 -67 30 -181 34 -250 10z m52 -168 c16 -25 16
-26 -30 -75 -25 -27 -51 -63 -57 -80 -8 -25 -15 -30 -37 -27 -51 6 -35 92 32
165 45 49 68 54 92 17z"/>
<path d="M6310 2681 c0 -27 3 -63 6 -80 l7 -31 338 0 339 0 0 34 c0 18 3 54 6
80 l7 46 -352 0 -351 0 0 -49z"/>
<path d="M1522 2673 c-49 -24 -76 -68 -76 -124 0 -54 21 -91 67 -119 89 -54
217 13 217 113 0 108 -111 178 -208 130z"/>
<path d="M618 2642 c-77 -47 -75 -177 2 -217 43 -22 447 -22 491 0 34 18 69
69 69 103 0 40 -28 91 -62 112 -30 18 -50 20 -253 20 -189 -1 -224 -3 -247
-18z"/>
<path d="M7299 2581 c-23 -24 -29 -38 -29 -74 0 -102 104 -146 179 -75 33 31
41 60 29 105 -19 73 -124 99 -179 44z"/>
<path d="M6330 2458 c0 -10 47 -470 50 -485 0 -2 126 -3 280 -3 l279 0 5 33
c3 17 12 115 21 217 8 102 17 200 18 218 l3 32 -328 0 c-256 0 -328 -3 -328
-12z m383 -92 c43 -18 85 -68 93 -112 26 -139 -134 -227 -242 -132 -61 53 -68
138 -16 200 45 54 105 70 165 44z"/>
<path d="M1165 2209 c-52 -30 -55 -42 -55 -237 0 -200 7 -234 56 -252 41 -16
379 -13 418 4 52 22 58 49 54 259 -4 250 16 231 -251 235 -136 1 -209 -2 -222
-9z m333 -243 c2 -73 -1 -102 -10 -108 -15 -9 -199 -11 -222 -2 -13 5 -16 24
-16 103 0 54 3 101 7 105 4 3 59 5 122 4 l116 -3 3 -99z"/>
<path d="M6394 1813 c12 -114 -18 -103 270 -103 l253 0 7 46 c3 26 6 64 6 85
l0 39 -271 0 -271 0 6 -67z"/>
<path d="M2180 1546 c-91 -24 -264 -68 -385 -99 -286 -74 -376 -101 -375 -113
1 -15 227 -81 709 -204 l233 -60 1539 0 1539 0 0 105 c0 102 -1 105 -22 105
-13 0 -695 1 -1516 3 -821 2 -1494 1 -1497 -1 -2 -3 4 -17 14 -31 28 -41 32
-60 17 -94 -25 -62 -23 -62 -257 -2 -118 30 -216 55 -218 55 -2 0 3 8 11 18
26 29 48 79 48 109 0 16 -13 49 -28 73 l-28 44 218 54 218 55 19 -24 c25 -29
27 -79 5 -120 -8 -17 -14 -33 -11 -35 2 -2 683 -4 1513 -4 l1509 0 3 105 3
105 -1548 -1 -1548 0 -165 -43z"/>
<path d="M5550 1331 l0 -261 378 0 c240 0 391 4 416 11 61 17 111 56 140 108
32 61 34 87 4 93 -13 2 -147 3 -298 1 l-275 -3 -3 -32 c-9 -90 -112 -89 -112
0 l0 32 -60 0 -60 0 0 44 c0 50 8 56 76 56 43 0 44 1 44 33 0 41 15 57 55 57
40 0 55 -16 55 -57 l0 -33 301 0 302 0 -6 36 c-9 54 -50 109 -104 141 l-48 28
-402 3 -403 3 0 -260z"/>
<path d="M2194 856 c-69 -30 -98 -106 -69 -181 21 -57 64 -88 120 -88 150 0
205 203 72 264 -49 22 -81 23 -123 5z"/>
<path d="M5655 856 c-17 -7 -43 -28 -58 -45 -22 -27 -27 -42 -27 -86 0 -46 5
-60 30 -89 72 -82 186 -62 239 41 52 102 -77 228 -184 179z"/>
<path d="M2940 839 c-44 -18 -90 -59 -111 -101 -27 -52 -36 -143 -19 -193 16
-47 84 -123 127 -141 26 -12 203 -14 962 -14 l930 0 1 230 1 230 -933 -1
c-588 0 -942 -4 -958 -10z m1770 -219 l0 -50 -865 0 -865 0 0 50 0 50 865 0
865 0 0 -50z"/>
<path d="M4927 768 c3 -35 11 -68 19 -74 7 -6 16 -33 20 -61 5 -43 3 -53 -15
-70 -19 -18 -22 -29 -19 -92 l3 -71 168 101 c119 71 167 105 167 118 0 19 -22
35 -180 128 -101 60 -146 83 -159 83 -5 0 -7 -26 -4 -62z"/>
</g>
</svg>
