<svg xmlns="http://www.w3.org/2000/svg" viewBox="0 0 512 640" x="0px" y="0px"><path d="m339.34,461.64v-19.22c5.32,1.58,10.84,2.39,16.5,2.39,31.86,0,57.78-25.92,57.78-57.78s-25.92-57.77-57.78-57.77c-25.4,0-47.37,16.23-54.99,40.01h-124.92c-10.18,0-18.47,8.28-18.47,18.46v73.91c0,10.18,8.29,18.47,18.47,18.47h144.95c10.18,0,18.46-8.29,18.46-18.47Zm16.5-120.38c25.24,0,45.78,20.53,45.78,45.77s-20.54,45.78-45.78,45.78c-6.97,0-13.66-1.52-19.89-4.52-15.72-7.61-25.88-23.8-25.88-41.26,0-3.53.4-7.03,1.18-10.4,0,0,0,0,0,0,4.84-20.82,23.17-35.37,44.59-35.37Zm-186.38,120.38v-73.91c0-3.56,2.9-6.46,6.47-6.46h122.44c-.19,1.91-.3,3.83-.3,5.76,0,5.58.82,11.05,2.37,16.27h-66.38c-3.31,0-6,2.69-6,6s2.69,6,6,6h66.48c1.59,0,3.03-.62,4.11-1.63,5.09,9.76,12.92,18.06,22.7,23.64v24.34c0,3.57-2.9,6.47-6.46,6.47h-144.95c-3.57,0-6.47-2.9-6.47-6.47Z"/><path d="m342.2,411.09c1.11,1.74,3.02,2.78,5.06,2.78.18,0,.36,0,.54-.02,2.24-.2,4.17-1.63,5.02-3.71,6.42-15.79,17.85-29.61,32.18-38.91,2.78-1.8,3.57-5.52,1.77-8.3s-5.52-3.57-8.3-1.77c-13.1,8.51-24.09,20.33-31.71,33.96-2.37-4.41-4.52-8.94-6.43-13.55-1.27-3.06-4.78-4.51-7.84-3.24-3.06,1.27-4.51,4.78-3.24,7.84,3.59,8.64,7.94,17.03,12.96,24.92Z"/><path d="m193.66,415.3h16.08c3.31,0,6-2.69,6-6s-2.69-6-6-6h-16.08c-3.31,0-6,2.69-6,6s2.69,6,6,6Z"/><path d="m300.54,433.98h-106.88c-3.31,0-6,2.69-6,6s2.69,6,6,6h106.88c3.31,0,6-2.69,6-6s-2.69-6-6-6Z"/><path d="m284.46,260.66h16.08c3.31,0,6-2.69,6-6s-2.69-6-6-6h-16.08c-3.31,0-6,2.69-6,6s2.69,6,6,6Z"/><path d="m193.66,260.66h66.48c3.31,0,6-2.69,6-6s-2.69-6-6-6h-66.48c-3.31,0-6,2.69-6,6s2.69,6,6,6Z"/><path d="m193.66,291.34h106.88c3.31,0,6-2.69,6-6s-2.69-6-6-6h-106.88c-3.31,0-6,2.69-6,6s2.69,6,6,6Z"/><path d="m193.66,106.02h16.08c3.31,0,6-2.69,6-6s-2.69-6-6-6h-16.08c-3.31,0-6,2.69-6,6s2.69,6,6,6Z"/><path d="m300.54,94.02h-66.48c-3.31,0-6,2.69-6,6s2.69,6,6,6h66.48c3.31,0,6-2.69,6-6s-2.69-6-6-6Z"/><path d="m300.54,124.7h-106.88c-3.31,0-6,2.69-6,6s2.69,6,6,6h106.88c3.31,0,6-2.69,6-6s-2.69-6-6-6Z"/><path d="m49.32,121.41h66.7l-9.12,9.12c-2.34,2.34-2.34,6.14,0,8.49,1.17,1.17,2.71,1.76,4.24,1.76s3.07-.59,4.24-1.76l19.36-19.36s0,0,0,0c.28-.28.53-.58.75-.91.02-.02.03-.05.04-.07.2-.3.37-.63.51-.97.01-.03.02-.05.03-.08.13-.33.24-.68.31-1.04,0-.02,0-.04,0-.06.07-.36.11-.72.11-1.1,0,0,0,0,0,0h0c0-.38-.04-.74-.11-1.1,0-.02,0-.04,0-.06-.07-.36-.18-.71-.31-1.04-.01-.03-.02-.05-.03-.08-.14-.34-.31-.67-.51-.97-.01-.02-.03-.04-.04-.07-.22-.33-.47-.64-.76-.93l-19.36-19.37c-2.34-2.34-6.14-2.35-8.49,0-2.34,2.34-2.34,6.14,0,8.49l9.12,9.13H49.32c-3.31,0-6,2.69-6,6s2.69,6,6,6Z"/><path d="m387.27,109.41h-47.93v-30.95c0-10.18-8.28-18.47-18.46-18.47h-144.95c-10.18,0-18.47,8.29-18.47,18.47v73.9c0,10.18,8.29,18.47,18.47,18.47h144.95c10.18,0,18.46-8.29,18.46-18.47v-30.95h47.93c35.49,0,64.36,28.87,64.36,64.36v13.92c0,35.49-28.87,64.36-64.36,64.36h-16.94l9.13-9.13c2.34-2.34,2.34-6.14,0-8.48-2.34-2.34-6.14-2.34-8.49,0l-19.37,19.37c-.14.14-.27.29-.4.44-.03.04-.06.08-.08.11-.09.12-.18.23-.27.36-.02.04-.04.08-.07.11-.08.13-.16.26-.23.39-.01.03-.03.05-.04.08-.08.15-.15.3-.21.45,0,.02-.01.04-.02.06-.07.16-.13.33-.18.5,0,.02,0,.04-.01.05-.05.17-.09.34-.13.51,0,.04-.01.08-.02.12-.03.15-.05.3-.07.46-.02.18-.03.37-.03.55,0,.02,0,.03,0,.05h0c0,.2.01.4.03.6.01.14.04.27.06.41,0,.06.02.12.03.17.03.17.08.33.12.49,0,.03.01.05.02.08.05.16.11.32.17.48,0,.02.02.05.03.07.06.15.13.29.2.43.02.03.03.07.05.1.07.13.15.25.22.37.03.04.05.09.08.13.07.11.15.21.23.31.04.05.08.11.12.16.07.09.16.18.24.26.05.06.1.12.16.17l19.37,19.36c1.17,1.17,2.71,1.76,4.24,1.76s3.07-.59,4.24-1.76c2.34-2.34,2.34-6.14,0-8.49l-9.12-9.12h16.94c42.11,0,76.36-34.25,76.36-76.36v-13.92c0-42.1-34.25-76.36-76.36-76.36Zm-59.93,42.95c0,3.57-2.9,6.47-6.46,6.47h-144.95c-3.57,0-6.47-2.9-6.47-6.47v-73.9c0-3.57,2.9-6.47,6.47-6.47h144.95c3.56,0,6.46,2.9,6.46,6.47v73.9Z"/><path d="m126.92,430.69l-9.12,9.12c-2.34,2.34-2.34,6.14,0,8.49,1.17,1.17,2.71,1.76,4.24,1.76s3.07-.58,4.24-1.76l19.37-19.36c1.13-1.12,1.76-2.65,1.76-4.24s-.63-3.12-1.76-4.24l-19.37-19.37c-2.34-2.34-6.14-2.34-8.49,0-2.34,2.34-2.34,6.14,0,8.48l9.13,9.13h-17.39c-35.49,0-64.36-28.88-64.36-64.37v-13.91c0-35.49,28.87-64.36,64.36-64.36h47.92v30.95c0,10.18,8.29,18.47,18.47,18.47h144.95c10.18,0,18.46-8.29,18.46-18.47v-73.9c0-10.18-8.28-18.47-18.46-18.47h-144.95c-10.18,0-18.47,8.29-18.47,18.47v30.95h-47.92c-42.1,0-76.36,34.25-76.36,76.36v13.91c0,42.11,34.25,76.37,76.36,76.37h17.38Zm42.54-197.59c0-3.57,2.9-6.47,6.47-6.47h144.95c3.56,0,6.46,2.9,6.46,6.47v73.9c0,3.57-2.9,6.47-6.46,6.47h-144.95c-3.57,0-6.47-2.9-6.47-6.47v-73.9Z"/><text x="0" y="527" fill="#000000" font-size="5px" font-weight="bold" font-family="'Helvetica Neue', Helvetica, Arial-Unicode, Arial, Sans-serif">Created by Fran Couto</text><text x="0" y="532" fill="#000000" font-size="5px" font-weight="bold" font-family="'Helvetica Neue', Helvetica, Arial-Unicode, Arial, Sans-serif">from the Noun Project</text></svg>