<svg xmlns="http://www.w3.org/2000/svg" version="1.1" viewBox="-5.0 -10.0 110.0 135.0">
 <path d="m83.332 90.625h-66.664c-6.3203 0-11.457-5.1406-11.457-11.457l-0.003907-58.336c0-6.3203 5.1406-11.457 11.457-11.457h66.668c6.3203 0 11.457 5.1406 11.457 11.457v58.332c0 6.3203-5.1406 11.457-11.457 11.457zm-66.664-75c-2.8711 0-5.207 2.3359-5.207 5.207v58.332c0 2.8711 2.3359 5.207 5.207 5.207h66.668c2.8711 0 5.207-2.3359 5.207-5.207v-58.332c0-2.8711-2.3359-5.207-5.207-5.207zm65.625 13.543c0-1.7266-1.3984-3.125-3.125-3.125h-58.336c-1.7266 0-3.125 1.3984-3.125 3.125 0 1.7266 1.3984 3.125 3.125 3.125h58.332c1.7266 0 3.125-1.3984 3.125-3.125zm-14.547 40.84 6.5195-6.5195c2.8438-2.8438 2.8438-7.4648 0-10.312l-6.5195-6.5195c-1.2227-1.2227-3.1992-1.2227-4.418 0s-1.2227 3.1992 0 4.418l6.5195 6.5195c0.26562 0.26562 0.30469 0.57422 0.30469 0.73828 0 0.16406-0.039063 0.47266-0.30469 0.73828l-6.5195 6.5195c-1.2227 1.2227-1.2227 3.1992 0 4.418 0.60938 0.60938 1.4062 0.91406 2.2109 0.91406 0.80078 0 1.5977-0.30469 2.2109-0.91406zm-31.07 0c1.2227-1.2227 1.2227-3.1992 0-4.418l-6.5195-6.5195c-0.26562-0.26562-0.30469-0.57422-0.30469-0.73828 0-0.16406 0.039063-0.47266 0.30469-0.73828l6.5195-6.5195c1.2227-1.2227 1.2227-3.1992 0-4.418-1.2227-1.2188-3.1992-1.2227-4.418 0l-6.5195 6.5195c-2.8438 2.8438-2.8438 7.4648 0 10.312l6.5195 6.5195c0.60938 0.60938 1.4062 0.91406 2.2109 0.91406 0.80078 0 1.5977-0.30469 2.2109-0.91406zm9.8906 6.9062 12.746-35.02c0.58984-1.625-0.25-3.418-1.8672-4.0078-1.6289-0.57812-3.4141 0.24609-4.0078 1.8672l-12.746 35.02c-0.58984 1.625 0.25 3.418 1.8672 4.0078 0.35547 0.125 0.71484 0.1875 1.0703 0.1875 1.2773 0 2.4727-0.78516 2.9375-2.0547z"/>
<text x="0.0" y="117.5" font-size="5.0" font-weight="bold" font-family="Arbeit Regular, Helvetica, Arial-Unicode, Arial, Sans-serif" fill="#000000">Created by Arkinasi</text><text x="0.0" y="122.5" font-size="5.0" font-weight="bold" font-family="Arbeit Regular, Helvetica, Arial-Unicode, Arial, Sans-serif" fill="#000000">from Noun Project</text></svg>